<svg xmlns="http://www.w3.org/2000/svg" enable-background="new 0 0 32 32" viewBox="0 0 32 32"><path d="M31.29883,15.25C28.15088,9.7998,22.28906,6.41406,16,6.41406S3.84912,9.7998,0.70117,15.25c-0.26807,0.46387-0.26807,1.03613,0,1.5C3.84912,22.2002,9.71094,25.58594,16,25.58594S28.15088,22.2002,31.29883,16.75C31.56689,16.28613,31.56689,15.71387,31.29883,15.25z M16,22.58594c-4.92578,0-9.53662-2.50244-12.23682-6.58594C6.46338,11.9165,11.07422,9.41406,16,9.41406S25.53662,11.9165,28.23682,16C25.53662,20.0835,20.92578,22.58594,16,22.58594z"/><path d="M16,10.44629c-3.0625,0-5.55371,2.49121-5.55371,5.55371S12.9375,21.55371,16,21.55371S21.55371,19.0625,21.55371,16S19.0625,10.44629,16,10.44629z M16,18.55371c-1.4082,0-2.55371-1.14551-2.55371-2.55371S14.5918,13.44629,16,13.44629S18.55371,14.5918,18.55371,16S17.4082,18.55371,16,18.55371z"/></svg>