<svg id="SvgjsSvg1023" width="288" height="288" xmlns="http://www.w3.org/2000/svg" version="1.1" xmlns:xlink="http://www.w3.org/1999/xlink" xmlns:svgjs="http://svgjs.com/svgjs"><defs id="SvgjsDefs1024"></defs><g id="SvgjsG1025"><svg xmlns="http://www.w3.org/2000/svg" width="288" height="288" version="1" viewBox="0 0 24 24"><path d="M2.2 9.4c0 1.3.2 3.3 2 5.1 1.6 1.6 6.9 5.2 7.1 5.4.2.1.4.2.6.2s.4-.1.6-.2c.2-.2 5.5-3.7 7.1-5.4 1.8-1.8 2-3.8 2-5.1 0-3-2.4-5.4-5.4-5.4-1.6 0-3.2.9-4.2 2.3C11 4.9 9.4 4 7.6 4 4.7 4 2.2 6.4 2.2 9.4z" fill="#e00000" class="color000 svgShape"></path></svg></g></svg>