<svg xmlns="http://www.w3.org/2000/svg" width="16" height="16" viewBox="0 0 16 16"><path d="M 9.0039062 0.984375 L 8.9863281 1.0019531 L 1.0039062 1.0019531 L 1.0039062 16.001953 L 1.5039062 16.001953 C 4.5178016 16.001953 8.9862482 16.001753 12 16.001953 L 12 15.001953 L 12 12.003906 L 11 12.003906 L 11 15.001953 C 8.2115451 15.001824 4.6999882 15.001863 2.0039062 15.001953 L 2.0039062 2.0019531 L 8.0214844 2.0019531 L 8.015625 5.0019531 L 12 5.0019531 L 12 4.0019531 L 11.990234 4.0019531 L 9.0039062 0.984375 z M 9.0195312 2.421875 L 10.583984 4.0019531 L 9.0175781 4.0019531 L 9.0195312 2.421875 z M 13.181641 5.0078125 C 12.944112 5.0078125 12.707032 5.0977906 12.529297 5.2753906 L 11.589844 6.2148438 L 11.597656 6.2226562 L 7.0292969 10.767578 L 5.9296875 14.072266 L 9.2324219 12.970703 L 14.154297 8.046875 L 14.728516 7.4746094 C 15.083947 7.1191094 15.084119 6.5234687 14.728516 6.1679688 L 13.833984 5.2753906 C 13.656249 5.0975906 13.419169 5.0078125 13.181641 5.0078125 z M 13.181641 6.0371094 L 13.966797 6.8222656 L 13.443359 7.3457031 L 12.652344 6.5664062 L 13.181641 6.0371094 z M 3 7.0039062 L 3 8.0039062 L 9 8.0039062 L 9 7.0039062 L 3 7.0039062 z M 11.951172 7.28125 L 12.734375 8.0527344 L 9.1074219 11.679688 L 8.3222656 10.892578 L 11.951172 7.28125 z M 3 9.0039062 L 3 10.003906 L 7 10.003906 L 7 9.0039062 L 3 9.0039062 z M 3 11.003906 L 3 12.003906 L 6 12.003906 L 6 11.003906 L 3 11.003906 z M 7.7578125 11.744141 L 8.2558594 12.240234 L 7.5097656 12.490234 L 7.7578125 11.744141 z M 3 13.003906 L 3 14.003906 L 5.0058594 14.003906 L 5.0058594 13.003906 L 3 13.003906 z " color="#000" font-family="sans-serif" font-weight="400" overflow="visible" style="line-height:normal;text-indent:0;text-align:start;text-decoration-line:none;text-decoration-style:solid;text-decoration-color:#000;text-transform:none;block-progression:tb;isolation:auto;mix-blend-mode:normal"/></svg>