<svg xmlns="http://www.w3.org/2000/svg" viewBox="0 0 24 24"><g fill="none" stroke="#303C42" stroke-linecap="round" stroke-linejoin="round" stroke-miterlimit="10"><path d="M18.5 13.5v1M22 15l-.5.5M15 15l.5.5M13.5 18.5h1M23.5 18.5h-1"/><circle cx="18.5" cy="18.5" r=".5"/><path d="M18.5 18.5l-1.498-1.498M18.355 10.64a6.483 6.483 0 00-1.89-3.356C15.446 8.412 14.77 9.771 15.5 10.5c.552.552 1.932.617 2.855.14zM12 5.5c-.69 0-1.355.11-1.98.31.105 1.509.946 2.69 1.98 2.69s1.875-1.181 1.98-2.69A6.49 6.49 0 0012 5.5zM13.49 18.326a6.478 6.478 0 01-3.47-.135c.105-1.51.946-2.691 1.98-2.691.735 0 1.372.597 1.717 1.485M5.645 10.64c.923.477 2.303.412 2.855-.14.73-.73.053-2.088-.964-3.216a6.483 6.483 0 00-1.891 3.356zM5.645 13.36a6.483 6.483 0 001.89 3.356c1.018-1.128 1.694-2.487.965-3.216-.552-.552-1.932-.617-2.855-.14z"/><circle cx="12" cy="12" r="1.5"/><circle cx="18.5" cy="18.5" r="5"/><circle cx="18.5" cy="18.5" r="5"/><path d="M13.834 20.302a8.5 8.5 0 116.467-6.468M15.952 22.803A11.478 11.478 0 0112 23.5C5.649 23.5.5 18.351.5 12S5.649.5 12 .5 23.5 5.649 23.5 12c0 1.389-.246 2.72-.697 3.953"/></g></svg>